<svg width="1440" height="430" viewBox="0 0 1440 430" fill="none" xmlns="http://www.w3.org/2000/svg">
<g clip-path="url(#clip0_2189_71183)">
<path d="M815.842 216.855C815.7 216.524 815.558 209.009 815.511 200.17L815.369 184.1L811.304 183.863C807.05 183.627 805.302 182.871 804.167 180.933C803.695 180.082 803.553 173.701 803.553 151.392C803.553 129.839 803.411 122.891 802.986 122.891C802.277 122.891 795.281 130.548 791.878 135.085C788.806 139.197 786.206 143.829 784.883 147.658C784.127 149.927 781.102 163.161 779.684 170.676C779.069 173.938 777.935 175.166 776.044 174.647C774.532 174.221 771.885 173.985 768.907 173.985C766.166 173.985 765.929 173.087 766.969 167.368C768.529 158.813 772.121 144.207 773.539 140.521C775.146 136.314 778.502 130.879 782.52 126.01C786.112 121.567 794.667 113.438 799.441 109.893L803.222 107.057L803.411 84.3692C803.553 62.2016 803.6 61.6344 804.593 59.4602C805.396 57.7113 810.548 52.2758 827.091 35.7328C849.637 13.2344 849.637 13.2344 852.993 13.9434C855.167 14.416 897.044 56.3406 898.462 59.4602C899.502 61.6344 899.502 62.2016 899.644 86.6852L899.786 111.641L901.298 112.87C904.37 115.375 911.744 122.749 914.391 126.01C918.361 130.831 921.764 136.314 923.371 140.521C924.789 144.207 928.381 158.813 929.941 167.368C930.981 173.087 930.745 173.985 928.003 173.985C925.025 173.985 922.379 174.221 920.866 174.647C918.975 175.166 917.841 173.938 917.227 170.676C915.809 163.303 912.784 149.927 912.075 147.8C910.326 142.695 907.112 137.401 902.574 131.871C901.251 130.311 900.022 129.035 899.833 129.035C899.644 129.035 899.502 140.473 899.502 154.464C899.502 174.552 899.36 180.082 898.888 180.933C897.8 182.823 895.532 183.863 892.365 183.863C890.758 183.863 888.158 184.005 886.551 184.147L883.668 184.478V195.727V207.023H887.922C894.35 207.023 896.902 208.489 896.902 212.223C896.902 214.35 895.815 215.909 893.783 216.76C891.703 217.658 875.633 217.705 874.782 216.855C874.357 216.429 874.215 212.128 874.215 200.312V184.336H849.637H825.059V195.632V206.929L829.927 207.118C835.741 207.307 837.064 207.922 837.82 210.805C838.435 213.073 837.82 214.68 835.788 216.193C834.559 217.091 833.708 217.186 825.248 217.327C818.016 217.469 816.031 217.327 815.842 216.855ZM833.85 213.121L835.079 211.845L833.803 210.994C832.857 210.379 831.25 210.096 827.327 209.954C822.648 209.765 822.081 209.623 821.845 208.82C821.703 208.111 821.277 207.969 820.143 208.063C818.725 208.205 818.678 208.3 818.536 210.757C818.3 214.87 817.969 214.68 825.768 214.491C832.432 214.35 832.621 214.302 833.85 213.121ZM890.805 214.113C892.838 213.546 893.736 212.648 893.31 211.608C892.885 210.474 891.845 210.238 886.315 209.954C881.825 209.765 881.163 209.623 880.974 208.867C880.785 208.205 880.265 207.969 879.13 207.969H877.523V211.277V214.586H883.337C886.504 214.586 889.86 214.35 890.805 214.113ZM821.75 191.757C821.75 184.194 821.892 181.075 822.317 180.649C822.743 180.224 829.407 180.082 849.448 180.082C864.053 180.082 876.342 180.224 876.767 180.366C877.429 180.602 877.523 182.067 877.523 191.473V202.297H879.178H880.832L880.927 191.331L881.068 180.318L887.26 180.177C896.146 179.988 895.673 180.697 895.863 167.037L896.004 156.449L851.669 156.544L807.334 156.686V167.179C807.334 177.577 807.334 177.672 808.468 178.853C809.508 179.94 809.981 180.082 813.904 180.177L818.205 180.318L818.347 191.331L818.441 202.297H820.096H821.75V191.757ZM776.848 165.288C776.848 164.295 780.818 147.516 781.527 145.436C784.127 137.921 789.089 130.831 797.692 122.323C803.175 116.841 803.884 116.273 805.396 116.273H807.098L807.192 133.667L807.334 151.014L850.109 151.108C873.648 151.203 893.594 151.108 894.445 150.966L895.957 150.73V136.361V121.945H897.564C898.935 121.945 899.596 122.418 902.338 125.301C908.435 131.777 913.209 139.103 915.383 145.436C916.092 147.516 920.063 164.295 920.063 165.288C920.063 165.524 922.709 165.43 924.269 165.146C925.64 164.863 925.782 164.673 925.498 163.586C925.309 162.925 924.222 158.434 923.088 153.661C920.819 144.113 919.023 139.481 915.714 134.471C912.547 129.744 905.836 122.323 900.542 117.786L895.957 113.816V90.041C895.957 74.5852 895.768 65.3211 895.437 63.7141C894.917 61.209 894.775 61.0672 873.222 39.4668L851.527 17.7246L829.832 39.4668L808.138 61.209L807.618 63.8086C807.05 66.6446 807.192 102.472 807.807 106.395L808.138 108.522L803.647 111.925C793.863 119.251 786.206 127.003 781.102 134.754C777.557 140.19 776.186 143.64 773.728 154.086C772.594 158.907 771.554 163.303 771.365 163.87C771.129 164.673 771.318 164.91 772.216 165.099C773.586 165.335 776.848 165.477 776.848 165.288Z" fill="#333333"/>
<path d="M846.328 48.1164C843.303 46.0367 842.783 44.8551 842.783 39.9395C842.783 35.1656 843.256 34.0312 846.045 31.9516C847.132 31.1008 848.03 30.959 851.764 30.959C856.679 30.959 857.861 31.4789 859.941 34.5039C860.791 35.8273 860.98 36.6781 860.98 39.9395C860.98 43.2008 860.791 44.0516 859.893 45.4223C857.955 48.3527 856.159 49.1562 851.764 49.1562C848.502 49.1562 847.652 48.9672 846.328 48.1164ZM855.167 44.666C857.955 42.8227 858.286 38.3324 855.829 35.8746C851.244 31.2898 843.681 36.7727 846.659 42.5391C848.219 45.6113 852.189 46.6039 855.167 44.666Z" fill="#333333"/>
<path d="M816.929 192.749L816.787 181.736L812.486 181.595C808.563 181.5 808.09 181.358 807.05 180.271C805.916 179.042 805.916 179.042 805.916 167.179V155.268L809.603 155.126L813.337 154.984L812.959 165.193L812.628 175.403L855.072 175.261L897.47 175.119L897.186 177.199C897.044 178.38 896.43 179.798 895.862 180.413C894.964 181.406 894.445 181.5 888.678 181.595L882.486 181.736L882.345 192.749L882.25 203.715H879.178H876.105V192.891C876.105 183.485 876.011 182.02 875.349 181.784C874.924 181.642 863.296 181.5 849.448 181.5C830.541 181.5 824.161 181.642 823.735 182.067C823.31 182.493 823.168 185.612 823.168 193.175V203.715H820.096H817.023L816.929 192.749Z" fill="#0E4EAC"/>
<path d="M827.091 176.868L811.352 176.773V171.621C811.352 168.833 811.493 163.917 811.682 160.798L811.966 155.031H854.694H897.375V165.571C897.375 171.338 897.186 176.301 896.997 176.537C896.666 177.01 862.871 177.152 827.091 176.868Z" fill="#146FF5"/>
<path d="M817.26 215.389C817.118 215.059 817.023 212.932 817.118 210.757L817.26 206.787L820.143 206.645C822.648 206.504 823.073 206.645 823.263 207.402C823.499 208.205 824.113 208.347 828.745 208.536C834.937 208.772 836.402 209.434 836.402 211.892C836.402 212.979 836.024 213.83 835.173 214.633C833.992 215.72 833.708 215.768 825.72 215.909C818.961 216.051 817.449 215.957 817.26 215.389Z" fill="#999999"/>
<path d="M876.105 211.277V206.551H879.13C881.683 206.551 882.155 206.693 882.392 207.449C882.581 208.205 883.243 208.347 887.733 208.536C890.569 208.678 893.263 208.961 893.688 209.15C894.114 209.339 894.728 210.19 895.012 211.088C895.484 212.459 895.437 212.932 894.823 213.877C893.736 215.579 891.325 216.004 883.337 216.004H876.105V211.277Z" fill="#999999"/>
<path d="M776.091 172.33C775.95 172 775.902 170.676 775.997 169.4C776.091 167.509 775.997 167.084 775.288 166.942C774.721 166.848 774.343 167.084 774.154 167.746C773.728 169.4 772.594 168.927 772.594 167.084C772.594 166.186 772.83 165.43 773.066 165.43C773.35 165.43 773.539 164.815 773.539 164.059C773.539 161.885 776.564 150.541 778.502 145.342C782.709 134.14 786.159 128.61 793.816 120.953C795.801 118.968 798.873 116.368 800.717 115.186C803.742 113.154 804.262 112.965 806.956 112.965C809.366 112.965 810.123 113.154 811.21 114.099L812.533 115.234L812.675 133.005C812.817 150.305 812.817 150.777 813.715 150.777C814.329 150.777 814.66 151.108 814.66 151.723C814.66 152.668 814.424 152.715 810.312 152.573L805.916 152.432L805.68 134.943L805.443 117.455L799.252 123.6C790.507 132.249 785.592 139.292 782.945 146.854C781.763 150.21 777.793 168.218 777.793 170.109C777.793 172.567 776.706 173.985 776.091 172.33Z" fill="#999999"/>
<path d="M919.684 172.425C919.354 172.094 919.117 171.149 919.117 170.298C919.117 168.266 915.194 150.352 913.965 146.854C911.744 140.426 906.828 132.911 900.684 126.53L897.422 123.127L897.375 125.396C897.375 127.334 897.233 127.617 896.43 127.617C895.484 127.617 895.437 127.381 895.579 123.505L895.721 119.346L897.328 119.204C898.698 119.062 899.266 119.393 901.487 121.567C904.843 124.829 909.995 130.973 912.216 134.234C914.202 137.212 916.612 144.349 919.637 156.118C921.48 163.35 921.764 164.106 922.993 164.862C924.033 165.477 924.316 165.997 924.316 167.179C924.316 168.927 923.182 169.353 922.757 167.746C922.568 167.131 922.189 166.848 921.622 166.942C920.913 167.084 920.771 167.509 920.913 169.778C921.102 172.472 920.63 173.37 919.684 172.425Z" fill="#999999"/>
<path d="M828.273 210.379C825.106 210.143 823.924 209.859 823.31 209.198C822.506 208.347 822.506 208.347 823.641 208.63C824.302 208.772 826.855 208.914 829.36 208.914C833.188 208.914 834.134 209.056 835.032 209.859L836.166 210.757L834.275 210.71C833.236 210.663 830.541 210.521 828.273 210.379Z" fill="#EEEEEE"/>
<path d="M887.827 210.474C883.053 210.332 882.203 210.19 881.825 209.434C881.399 208.63 881.636 208.583 886.173 208.772C892.318 209.009 893.83 209.245 894.539 210.096C895.012 210.663 894.964 210.805 894.255 210.71C893.736 210.663 890.852 210.521 887.827 210.474Z" fill="#EEEEEE"/>
<path d="M772.027 172.189C771.979 171.952 771.932 170.676 771.932 169.258C771.837 165.052 770.278 165.713 769.521 170.298C769.38 171.243 769.049 172.047 768.812 172.047C768.104 172.047 768.245 169.873 769.238 165.666C774.815 141.702 775.43 139.764 779.684 133.336C784.788 125.585 792.445 117.833 802.182 110.507C805.68 107.907 806.578 106.962 806.294 106.395C805.68 105.166 805.585 65.4156 806.2 62.3906L806.72 59.791L828.273 38.1906C848.597 17.7719 849.968 16.543 851.527 16.543C853.087 16.543 854.458 17.7719 874.782 38.1906C896.193 59.6492 896.335 59.791 896.855 62.2961C897.186 63.9031 897.375 73.1672 897.375 88.623V112.398L901.96 116.368C910.515 123.694 917.746 132.722 920.866 139.954C922.615 144.018 928.57 167.84 928.57 170.865C928.57 172.709 927.72 172.283 927.389 170.298C926.632 165.571 925.025 165.052 925.025 169.495C925.025 171.669 924.884 172.283 924.269 172.425C923.655 172.52 923.418 172 923.182 169.778C922.898 167.415 922.662 166.942 921.528 166.233C920.346 165.524 920.015 164.721 918.219 157.536C915.194 145.767 912.784 138.63 910.798 135.652C907.443 130.642 897.47 119.629 897.328 120.764C897.28 121.047 897.233 128.279 897.186 136.834L897.139 152.432L856.49 152.573C834.134 152.668 814.802 152.573 813.479 152.432L811.115 152.148V134.423V116.652L809.792 115.517C808.988 114.808 807.854 114.383 806.956 114.383C803.695 114.383 795.187 121.52 788.759 129.65C784.079 135.605 779.542 146.051 776.564 157.773C775.666 161.27 774.957 164.721 774.957 165.477C774.957 166.233 774.768 166.848 774.484 166.848C774.248 166.848 773.917 168.124 773.728 169.684C773.539 171.621 773.208 172.52 772.783 172.52C772.405 172.52 772.074 172.378 772.027 172.189ZM834.89 103.323C836.497 101.81 836.639 101.479 836.639 99.0688C836.639 96.7527 836.45 96.2801 835.079 94.9094C833.708 93.5387 833.236 93.3496 830.92 93.3496C828.509 93.3496 828.178 93.4914 826.666 95.0984C825.342 96.6109 825.059 97.2254 825.059 99.0688C825.059 101.007 825.295 101.479 826.902 103.086C828.509 104.693 828.982 104.93 830.92 104.93C832.763 104.93 833.377 104.646 834.89 103.323ZM876.153 103.086C877.76 101.479 877.996 101.007 877.996 99.0215C877.996 97.0363 877.76 96.5637 876.153 94.9566C874.64 93.4441 873.979 93.1133 872.466 93.1133C870.292 93.1133 867.692 94.6258 866.747 96.4219C866.416 97.1309 866.227 98.5016 866.369 99.7305C866.511 101.385 866.889 102.141 868.259 103.37C869.677 104.646 870.339 104.93 872.135 104.93C874.073 104.93 874.546 104.693 876.153 103.086ZM855.829 46.6512C860.791 43.3426 860.933 36.9145 856.112 33.3695C854.221 31.9516 849.306 31.9516 847.462 33.3695C844.91 35.2602 844.201 36.6781 844.201 39.9395C844.201 43.2953 845.005 44.8078 847.746 46.6984C849.92 48.1637 853.607 48.1637 855.829 46.6512Z" fill="white"/>
<circle cx="872.088" cy="99.0215" r="6.38086" fill="#111111"/>
<circle cx="830.494" cy="99.0215" r="6.38086" fill="#111111"/>
<path d="M848.461 116.746C847.805 116.746 847.26 116.208 847.412 115.57C847.666 114.504 848.263 113.517 849.142 112.735C850.339 111.672 851.962 111.074 853.654 111.074C855.347 111.074 856.97 111.672 858.166 112.735C859.046 113.517 859.642 114.504 859.896 115.57C860.049 116.208 859.504 116.746 858.848 116.746C858.192 116.746 857.679 116.197 857.442 115.586C857.246 115.079 856.922 114.614 856.487 114.228C855.736 113.56 854.717 113.185 853.654 113.185C852.592 113.185 851.573 113.56 850.821 114.228C850.387 114.614 850.063 115.079 849.866 115.586C849.629 116.197 849.116 116.746 848.461 116.746Z" fill="#111111"/>
<ellipse cx="859.5" cy="231" rx="64.5" ry="6" fill="#D8D8D8"/>
<path d="M1281.68 75.6746C1314.69 66.7594 1345.11 95.0967 1360.38 121.487C1369.69 137.571 1376.61 155.354 1381.7 173.188C1381.99 174.219 1382.28 175.254 1382.56 176.289C1381.09 175.017 1379.59 173.781 1378.04 172.588C1375.96 165.434 1373.55 158.364 1370.81 151.4C1364.61 135.643 1357.15 120.108 1346.17 107.085C1335.62 94.5595 1322.01 82.9347 1305.8 78.8306C1297.65 76.7648 1289.09 76.7766 1281.04 79.3441C1274.53 81.4218 1268.57 84.9097 1263.15 89.0493C1255.02 95.2705 1248.17 103.084 1242.24 111.387C1228.91 130.046 1219.31 151.052 1208.23 171.051C1196.59 192.081 1183.21 212.771 1164.59 228.33C1154.69 236.594 1143.6 243.273 1131.6 248.005C1118.13 253.314 1103.86 256.142 1089.46 257.24C1089.39 256.861 1089.31 256.482 1089.21 256.107C1089.03 255.364 1088.79 254.653 1088.51 253.978C1109.88 252.449 1131.01 246.848 1149.27 235.385C1170.06 222.33 1185.45 202.955 1197.99 182.151C1210.05 162.132 1219.7 140.751 1231.98 120.859C1237.57 111.805 1243.75 103.005 1251.17 95.3456C1259.56 86.6872 1269.9 78.8583 1281.68 75.6785L1281.68 75.6746Z" fill="#777777"/>
<path d="M1279.29 90.254C1293.1 84.2816 1307.8 88.4133 1319.75 96.6214C1332.43 105.335 1342.87 117.489 1350.84 130.576C1355.33 137.958 1359.05 145.866 1362.43 153.814C1364.01 157.554 1365.5 161.334 1366.87 165.158C1365.44 164.352 1363.97 163.59 1362.49 162.875C1361.17 159.375 1359.76 155.911 1358.24 152.494C1354.89 144.934 1351.27 137.405 1346.81 130.422C1338.58 117.537 1327.89 105.169 1314.62 97.2969C1308.54 93.6905 1301.7 90.9018 1294.56 90.6411C1287.12 90.3646 1280.04 92.7385 1274.05 97.1349C1268.87 100.943 1264.2 105.687 1259.86 110.415C1255.79 114.839 1251.98 119.496 1248.44 124.346C1234.4 143.579 1224.25 165.174 1212.73 185.911C1201.31 206.467 1188.1 226.497 1169.4 241.172C1146.27 259.318 1117.79 267.384 1088.87 269.936C1089.19 268.857 1089.41 267.728 1089.54 266.543C1091.26 266.389 1092.98 266.219 1094.69 266.021C1122.98 262.794 1150.76 253.535 1172.33 234.397C1190.03 218.692 1202.28 198.338 1213.41 177.715C1224.71 156.788 1235.28 135.284 1250.18 116.604C1253.97 111.853 1258.01 107.294 1262.35 103.04C1267.38 98.1066 1272.74 93.0822 1279.28 90.2501L1279.29 90.254Z" fill="#777777"/>
<path d="M1292.73 180.76C1303.13 166.043 1321.24 155.176 1339.69 156.539C1347.66 157.128 1355.32 159.426 1362.49 162.879C1363.07 164.427 1363.63 165.98 1364.18 167.536C1356.23 163.29 1347.1 159.983 1338.05 159.802C1319.04 159.423 1301.36 171.454 1292.3 187.736C1283.15 204.168 1280.47 224.092 1281.76 242.661C1282.41 252.074 1284.57 261.384 1287.29 270.398C1290.13 279.854 1293.62 289.156 1297.93 298.044C1304.05 310.636 1312.21 323.146 1324.48 330.505C1331.65 334.81 1339.83 337.026 1348.22 336.576C1356.3 336.15 1363.03 332.642 1368.6 326.816C1382.25 312.533 1386.85 292.391 1388.15 273.297C1389.75 249.645 1388.82 225.775 1384.87 202.43C1386.33 204.223 1387.75 206.044 1389.15 207.881C1390.4 216.31 1391.26 224.799 1391.75 233.303C1392.37 244.158 1392.43 255.048 1391.91 265.911C1391.42 276.378 1390.76 286.925 1387.97 297.072C1385.5 306.062 1381.82 314.938 1376.39 322.558C1371.83 328.949 1366.05 334.803 1358.67 337.812C1351.19 340.858 1342.12 340.57 1334.43 338.425C1326.99 336.351 1320.24 332.369 1314.53 327.199C1303.44 317.158 1296.33 303.649 1290.71 289.986C1283.53 272.503 1278.13 253.76 1278.17 234.725C1278.2 216.156 1281.83 196.197 1292.74 180.756L1292.73 180.76Z" fill="#777777"/>
<path d="M1362.49 162.879C1363.97 163.59 1365.43 164.352 1366.87 165.162C1367.45 166.785 1368.01 168.413 1368.55 170.048C1367.5 169.396 1366.43 168.768 1365.34 168.168C1364.96 167.954 1364.57 167.745 1364.18 167.536C1363.63 165.979 1363.07 164.427 1362.49 162.879Z" fill="#777777"/>
<path d="M1368.6 181.764C1367.28 176.976 1365.81 172.225 1364.18 167.536C1364.57 167.745 1364.95 167.955 1365.34 168.168C1366.42 168.768 1367.49 169.396 1368.55 170.048C1370.08 174.662 1371.45 179.331 1372.66 184.043C1372.77 184.454 1372.87 184.865 1372.98 185.279C1371.56 184.055 1370.1 182.886 1368.6 181.768L1368.6 181.764Z" fill="#777777"/>
<path d="M1324.28 171.715C1332.47 169.396 1341.22 169.807 1349.38 172.07C1356.46 174.038 1362.83 177.462 1368.6 181.764C1368.72 182.202 1368.84 182.641 1368.96 183.079C1369.31 184.402 1369.66 185.722 1369.98 187.049C1368.56 185.864 1367.08 184.73 1365.56 183.652C1351.95 173.998 1332.96 169.38 1317.68 178.082C1301.54 187.278 1294.68 205.547 1293.06 223.223C1291.33 242.195 1294.64 261.159 1301.84 278.74C1305.66 288.038 1310.45 297.048 1316.41 305.158C1321.6 312.216 1327.93 319.856 1336.44 322.945C1344.42 325.844 1353.51 323.932 1359.99 318.469C1365.69 313.658 1369.39 306.947 1371.74 299.944C1374.12 292.869 1375.35 285.514 1375.94 278.085C1376.77 267.416 1377.22 256.711 1377.09 246.01C1376.86 226.17 1374.77 206.313 1369.97 187.041C1371.46 188.269 1372.9 189.549 1374.3 190.876C1378.4 209.161 1380.29 227.912 1380.43 246.646C1380.52 257.351 1380.09 268.055 1379.22 278.724C1378.63 286.056 1377.45 293.411 1375.11 300.394C1372.77 307.35 1369.35 314.27 1363.96 319.378C1358.28 324.766 1350.07 328.463 1342.12 327.641C1333.22 326.721 1325.75 321.309 1319.92 314.804C1313.56 307.71 1308.25 299.616 1303.91 291.147C1295.17 274.087 1289.69 255.297 1289.28 236.068C1288.91 218.341 1292.06 198.571 1304.21 184.88C1309.59 178.825 1316.42 173.935 1324.28 171.707L1324.28 171.715Z" fill="#777777"/>
<path d="M1378.04 172.588C1379.59 173.777 1381.09 175.017 1382.56 176.289C1383.09 178.26 1383.61 180.235 1384.09 182.214C1382.63 180.82 1381.13 179.465 1379.59 178.153C1379.1 176.293 1378.58 174.436 1378.04 172.588L1378.04 172.588Z" fill="#777777"/>
<path d="M1384.1 182.214C1383.61 180.235 1383.09 178.26 1382.56 176.289C1384.84 178.26 1387.01 180.322 1389.09 182.431C1395.95 189.411 1401.73 197.204 1407.52 205.069C1413.51 213.214 1419.44 221.402 1425.14 229.756C1436.51 246.417 1446.71 263.778 1455.8 281.782C1456.77 283.697 1453.89 285.388 1452.92 283.464C1444.27 266.325 1434.64 249.731 1423.88 233.825C1418.28 225.542 1412.45 217.413 1406.54 209.347C1400.65 201.316 1394.87 193.215 1387.94 186.03C1386.68 184.734 1385.41 183.458 1384.1 182.214L1384.1 182.214Z" fill="#777777"/>
<path d="M1368.96 183.079C1368.84 182.641 1368.72 182.202 1368.6 181.764C1370.1 182.878 1371.56 184.051 1372.98 185.275C1373.45 187.14 1373.89 189.012 1374.31 190.888C1372.91 189.561 1371.47 188.277 1369.98 187.053C1369.66 185.725 1369.31 184.406 1368.96 183.083L1368.96 183.079Z" fill="#777777"/>
<path d="M1379.6 178.157C1381.13 179.469 1382.63 180.824 1384.1 182.218C1385.65 188.502 1386.98 194.842 1388.08 201.221C1386.67 199.468 1385.21 197.726 1383.71 196.015C1382.55 190.019 1381.18 184.063 1379.6 178.157L1379.6 178.157Z" fill="#777777"/>
<path d="M1383.7 196.011C1385.21 197.718 1386.66 199.46 1388.08 201.217C1388.46 203.433 1388.82 205.661 1389.14 207.885C1387.75 206.044 1386.33 204.223 1384.87 202.434C1384.51 200.289 1384.12 198.148 1383.7 196.015L1383.7 196.011Z" fill="#777777"/>
<path d="M1389.15 207.885C1388.82 205.661 1388.46 203.433 1388.08 201.217C1388.69 201.972 1389.29 202.73 1389.89 203.489C1395.5 210.658 1400.79 218.1 1406.14 225.467C1411.5 232.837 1416.75 240.287 1421.66 247.962C1431.31 263.047 1439.32 279.013 1446.75 295.287C1447.64 297.23 1444.76 298.929 1443.87 296.973C1437.89 283.871 1431.59 270.892 1424.23 258.496C1417.07 246.421 1408.99 234.927 1400.68 223.626C1396.87 218.443 1393.11 213.095 1389.15 207.885L1389.15 207.885Z" fill="#777777"/>
<path d="M1044.25 234.816C1047.25 233.09 1050.87 234.236 1054.14 234.39C1055.81 234.469 1057.64 234.405 1059.24 234.958C1060.98 235.555 1062.13 236.617 1063.21 238.095C1063.62 238.656 1063.98 239.24 1064.3 239.841C1062.88 239.659 1061.46 239.536 1060.03 239.422C1059.22 238.581 1058.2 237.996 1056.91 237.881C1055.23 237.735 1053.56 237.719 1051.89 237.498C1051.34 237.423 1050.76 237.332 1050.17 237.257C1048.93 235.843 1047.28 234.911 1045.09 234.998C1044.84 235.006 1044.62 235.077 1044.45 235.187L1044.25 234.816Z" fill="#777777"/>
<path d="M1045.09 234.998C1047.29 234.911 1048.94 235.839 1050.17 237.257C1049.09 237.131 1047.99 237.072 1046.99 237.324C1046.71 237.395 1046.45 237.49 1046.22 237.605C1045.87 237.522 1045.5 237.486 1045.09 237.502C1043.73 237.554 1043.52 235.78 1044.45 235.187C1044.63 235.077 1044.84 235.006 1045.09 234.998Z" fill="#777777"/>
<path d="M1046.99 237.324C1047.99 237.072 1049.09 237.131 1050.17 237.257C1050.44 237.562 1050.68 237.881 1050.91 238.225C1049.77 238.079 1048.6 238.071 1047.46 238.138C1047.09 237.893 1046.68 237.708 1046.22 237.605C1046.45 237.486 1046.71 237.392 1046.98 237.324L1046.99 237.324Z" fill="#777777"/>
<path d="M1043.68 235.187C1043.87 235.049 1044.06 234.931 1044.25 234.816L1044.45 235.187C1043.51 235.78 1043.72 237.554 1045.09 237.502C1045.49 237.486 1045.87 237.522 1046.22 237.605C1045.28 238.059 1044.64 238.853 1044.16 239.793C1043.85 240.145 1043.56 240.536 1043.27 240.935C1041.15 243.846 1039.74 247.263 1038.8 250.723C1038.27 252.706 1037.91 254.724 1037.67 256.762C1037.72 252.358 1038.16 247.926 1039.41 243.692C1040.3 240.71 1041 237.131 1043.68 235.191L1043.68 235.187Z" fill="#777777"/>
<path d="M1047.46 238.138C1048.6 238.067 1049.77 238.079 1050.91 238.225C1051.63 239.319 1052.18 240.587 1052.58 241.863C1051.66 241.681 1050.72 241.496 1049.8 241.436C1049.28 240.097 1048.55 238.853 1047.46 238.138Z" fill="#777777"/>
<path d="M1060.03 239.422C1061.46 239.54 1062.88 239.659 1064.3 239.841C1064.9 240.97 1065.36 242.159 1065.72 243.384C1064.49 243.186 1063.27 243.032 1062.07 242.918C1061.59 241.63 1060.94 240.362 1060.03 239.422Z" fill="#777777"/>
<path d="M1064.3 239.841C1064.34 239.841 1064.37 239.845 1064.4 239.853C1068.2 240.354 1071.98 241.184 1075.53 242.653C1080.98 244.92 1086.22 248.436 1088.51 253.974C1088.11 254.001 1087.72 254.029 1087.33 254.053C1086.09 254.132 1085.56 255.289 1085.76 256.221C1085.05 254.1 1083.85 252.18 1082.24 250.62C1077.88 246.41 1071.75 244.352 1065.72 243.384C1065.36 242.155 1064.9 240.97 1064.3 239.841L1064.3 239.841Z" fill="#777777"/>
<path d="M1049.8 241.44C1050.72 241.5 1051.66 241.681 1052.58 241.867C1052.7 242.238 1052.81 242.61 1052.9 242.977C1053.43 244.983 1053.92 247.045 1054.29 249.084C1054.92 252.646 1054.98 256.162 1055.07 259.764C1055.25 266.566 1055.48 273.435 1053.16 279.945C1052.43 281.967 1052.05 284.179 1051.04 286.091C1049.88 286.332 1048.73 286.51 1047.57 286.597C1049.6 284.381 1050.18 280.814 1051.19 277.923C1053.14 272.321 1052.73 266.104 1052.59 260.282C1052.5 256.92 1052.56 253.579 1051.97 250.257C1051.63 248.388 1051.19 246.528 1050.76 244.679C1050.52 243.68 1050.23 242.527 1049.81 241.44L1049.8 241.44Z" fill="#777777"/>
<path d="M1062.07 242.918C1063.27 243.036 1064.5 243.186 1065.72 243.384C1066.2 244.976 1066.52 246.623 1066.79 248.266C1067.51 252.631 1067.86 257.047 1067.89 261.471C1067.93 265.745 1068.25 269.971 1067.16 274.146C1066.41 276.994 1065.95 279.985 1065.07 282.817C1063.81 283.077 1062.53 283.31 1061.25 283.563C1061.38 283.259 1061.49 282.947 1061.59 282.635C1062.23 280.636 1062.69 278.594 1063.15 276.548C1063.58 274.636 1064.28 272.697 1064.49 270.745C1064.71 268.529 1064.62 266.314 1064.58 264.09C1064.53 261.969 1064.55 259.851 1064.45 257.73C1064.23 253.389 1063.8 248.957 1062.65 244.751C1062.48 244.158 1062.3 243.534 1062.06 242.922L1062.07 242.918Z" fill="#777777"/>
<path d="M1043.68 252.508C1043.68 252.508 1043.73 252.504 1043.74 252.496C1045.09 252.263 1047.26 251.94 1048.24 253.121C1049.55 254.689 1048.75 256.822 1046.72 257.193C1044.82 257.545 1042.92 257.308 1041.01 257.3C1041.01 257.284 1041.01 257.264 1041.01 257.248C1041.01 257.24 1041.01 257.233 1041.01 257.225C1041.53 257.019 1041.86 256.577 1041.99 256.083C1042.08 256.051 1042.21 256.02 1042.38 255.992C1042.78 255.929 1043.18 255.897 1043.59 255.854C1044.29 255.779 1044.98 255.649 1045.7 255.633C1046.58 255.617 1046.71 253.745 1045.83 253.974C1045.44 254.076 1045 254.053 1044.6 254.065C1043.57 254.088 1042.54 254.009 1041.5 253.978C1041.58 253.559 1041.67 253.144 1041.76 252.733C1042.2 252.674 1042.64 252.615 1043.08 252.568C1043.15 252.56 1043.83 252.469 1043.74 252.493C1043.74 252.493 1043.72 252.497 1043.68 252.504L1043.68 252.508Z" fill="#777777"/>
<path d="M1041.5 252.777C1041.59 252.761 1041.67 252.753 1041.76 252.737C1041.67 253.148 1041.58 253.563 1041.5 253.982C1041.37 253.978 1041.24 253.974 1041.11 253.97C1041.13 253.591 1041.15 253.211 1041.18 252.828C1041.28 252.809 1041.39 252.793 1041.49 252.777L1041.5 252.777Z" fill="#777777"/>
<path d="M1039.51 253.839C1039.95 253.223 1040.5 252.966 1041.19 252.828C1041.16 253.207 1041.13 253.587 1041.11 253.97C1040.84 253.97 1040.57 253.97 1040.3 253.974C1039.92 253.99 1039.54 254.132 1039.24 254.373C1039.29 254.199 1039.38 254.021 1039.51 253.839Z" fill="#777777"/>
<path d="M1045.84 253.978C1046.72 253.749 1046.58 255.621 1045.7 255.637C1044.99 255.653 1044.3 255.783 1043.59 255.858C1043.19 255.901 1042.78 255.933 1042.38 255.996C1042.21 256.024 1042.08 256.055 1041.99 256.087C1042 256.044 1042.01 256.004 1042.02 255.961C1042.12 255.862 1042.24 255.72 1042.39 255.522C1042.28 255.668 1042.16 255.795 1042.03 255.893C1042.13 255.285 1041.93 254.637 1041.45 254.286C1041.46 254.187 1041.48 254.084 1041.51 253.982C1042.54 254.013 1043.57 254.092 1044.61 254.069C1045.01 254.057 1045.45 254.084 1045.84 253.978L1045.84 253.978Z" fill="#777777"/>
<path d="M1041.1 254.1C1041.1 254.057 1041.11 254.009 1041.11 253.966C1041.24 253.966 1041.37 253.97 1041.51 253.978C1041.48 254.076 1041.46 254.179 1041.45 254.282C1041.35 254.203 1041.23 254.144 1041.1 254.1Z" fill="#777777"/>
<path d="M1087.33 254.057C1087.72 254.033 1088.11 254.005 1088.51 253.978C1088.79 254.657 1089.02 255.364 1089.21 256.107C1089.3 256.482 1089.39 256.861 1089.46 257.24C1088.75 257.3 1088.04 257.347 1087.33 257.394C1086.58 257.442 1086.1 257.075 1085.87 256.565C1085.84 256.47 1085.82 256.379 1085.78 256.288C1085.78 256.265 1085.77 256.245 1085.76 256.225C1085.56 255.293 1086.09 254.14 1087.33 254.057Z" fill="#777777"/>
<path d="M1040.45 254.013C1040.69 253.997 1040.91 254.029 1041.1 254.104C1041.09 254.333 1041.08 254.562 1041.07 254.787C1040.82 254.535 1040.56 254.278 1040.31 254.025C1040.35 254.025 1040.4 254.021 1040.45 254.017L1040.45 254.013Z" fill="#777777"/>
<path d="M1039.24 254.373C1039.54 254.132 1039.92 253.99 1040.3 253.974C1040.57 253.966 1040.84 253.966 1041.11 253.97C1041.11 254.013 1041.11 254.061 1041.1 254.104C1040.91 254.033 1040.69 254.001 1040.45 254.013C1040.4 254.013 1040.35 254.017 1040.31 254.021C1040.56 254.274 1040.82 254.531 1041.07 254.784C1041.05 255.269 1041.03 255.759 1041.03 256.245C1039.98 256.269 1038.96 255.396 1039.24 254.369L1039.24 254.373Z" fill="#777777"/>
<path d="M1041.07 254.783C1041.07 254.558 1041.09 254.329 1041.1 254.1C1041.23 254.144 1041.34 254.203 1041.45 254.282C1041.4 254.531 1041.35 254.783 1041.31 255.032C1041.23 254.949 1041.15 254.866 1041.07 254.783Z" fill="#777777"/>
<path d="M1041.07 254.784C1041.15 254.866 1041.23 254.949 1041.31 255.032C1041.25 255.431 1041.19 255.834 1041.13 256.237C1041.09 256.241 1041.05 256.245 1041.02 256.245C1041.03 255.755 1041.04 255.269 1041.06 254.784L1041.07 254.784Z" fill="#777777"/>
<path d="M1041.32 255.032C1041.53 255.246 1041.74 255.451 1041.95 255.664L1041.43 256.19C1041.33 256.213 1041.23 256.233 1041.14 256.237C1041.19 255.834 1041.25 255.431 1041.32 255.032Z" fill="#777777"/>
<path d="M1041.97 255.692C1041.97 255.692 1041.96 255.676 1041.95 255.669C1041.96 255.661 1041.97 255.653 1041.97 255.645C1041.97 255.661 1041.97 255.676 1041.97 255.692Z" fill="#777777"/>
<path d="M1041.97 255.692C1041.97 255.692 1041.97 255.66 1041.97 255.645C1041.97 255.652 1041.96 255.66 1041.95 255.668C1041.74 255.455 1041.53 255.25 1041.32 255.036C1041.36 254.787 1041.4 254.535 1041.45 254.286C1041.93 254.637 1042.13 255.285 1042.03 255.893C1041.84 256.04 1041.63 256.138 1041.42 256.194L1041.95 255.668C1041.95 255.668 1041.96 255.684 1041.97 255.692L1041.97 255.692Z" fill="#777777"/>
<path d="M1042.03 255.889C1042.16 255.791 1042.28 255.668 1042.39 255.518C1042.24 255.72 1042.12 255.862 1042.02 255.957C1042.02 255.933 1042.03 255.913 1042.03 255.885L1042.03 255.889Z" fill="#777777"/>
<path d="M1041.8 256.154C1041.8 256.154 1041.88 256.123 1041.99 256.087C1041.86 256.581 1041.53 257.023 1041.01 257.229C1041.04 256.988 1041.07 256.754 1041.1 256.517C1041.21 256.411 1041.31 256.304 1041.43 256.194C1041.64 256.138 1041.84 256.04 1042.03 255.893C1042.03 255.917 1042.03 255.941 1042.02 255.965C1041.9 256.091 1041.82 256.142 1041.8 256.158L1041.8 256.154Z" fill="#777777"/>
<path d="M1041.8 256.154C1041.8 256.154 1041.89 256.087 1042.02 255.96C1042.01 256.004 1042 256.043 1041.99 256.087C1041.88 256.119 1041.82 256.15 1041.8 256.154Z" fill="#777777"/>
<path d="M1041.14 256.238C1041.23 256.234 1041.33 256.214 1041.42 256.191C1041.32 256.297 1041.21 256.403 1041.1 256.514C1041.11 256.423 1041.13 256.332 1041.14 256.238Z" fill="#777777"/>
<path d="M1085.76 256.222C1085.77 256.246 1085.78 256.266 1085.78 256.285C1085.82 256.376 1085.84 256.466 1085.87 256.561C1085.82 256.455 1085.78 256.337 1085.76 256.218L1085.76 256.222Z" fill="#777777"/>
<path d="M1041.14 256.238C1041.12 256.329 1041.11 256.419 1041.1 256.514C1041.07 256.541 1041.05 256.569 1041.02 256.597C1041.02 256.478 1041.02 256.364 1041.02 256.246C1041.06 256.246 1041.1 256.246 1041.14 256.238Z" fill="#777777"/>
<path d="M1041.02 256.596C1041.05 256.569 1041.07 256.541 1041.1 256.514C1041.07 256.751 1041.04 256.987 1041.01 257.224C1041.01 257.011 1041.01 256.806 1041.01 256.596L1041.02 256.596Z" fill="#777777"/>
<path d="M1041.02 256.597C1041.02 256.806 1041.01 257.015 1041.01 257.225C1040.94 257.256 1040.85 257.284 1040.76 257.304C1040.61 257.304 1040.46 257.304 1040.31 257.307C1040.54 257.067 1040.78 256.834 1041.02 256.593L1041.02 256.597Z" fill="#777777"/>
<path d="M1041.01 257.229C1041.01 257.229 1041.01 257.244 1041.01 257.252C1041.01 257.268 1041.01 257.288 1041.01 257.304C1040.93 257.304 1040.84 257.304 1040.76 257.304C1040.85 257.284 1040.93 257.26 1041.01 257.225L1041.01 257.229Z" fill="#777777"/>
<path d="M1041.01 257.304C1041.01 257.304 1041.01 257.268 1041.01 257.253C1041.01 257.268 1041.01 257.288 1041.01 257.304L1041.01 257.304Z" fill="#777777"/>
<path d="M1087.33 257.394C1088.04 257.347 1088.75 257.3 1089.46 257.24C1090.03 260.282 1089.9 263.474 1089.55 266.527C1089.55 266.531 1089.55 266.543 1089.55 266.547C1088.9 266.602 1088.26 266.657 1087.61 266.713C1086.75 266.784 1086.23 267.38 1086.06 268.048L1085.95 268.02C1086.21 266.807 1086.32 265.547 1086.38 264.248C1086.49 261.649 1086.63 259.077 1085.87 256.565C1086.1 257.075 1086.59 257.442 1087.33 257.394Z" fill="#777777"/>
<path d="M1041.01 257.304C1040.98 257.485 1040.96 257.671 1040.95 257.853C1040.5 259.531 1037.66 259.377 1037.67 257.39C1037.67 257.177 1037.67 256.968 1037.67 256.755C1037.9 254.716 1038.27 252.698 1038.8 250.715C1039.74 247.255 1041.15 243.838 1043.27 240.927C1043.56 240.528 1043.85 240.141 1044.16 239.785C1043.4 241.267 1043.06 243.115 1042.63 244.569C1041.84 247.275 1041.4 250.032 1041.18 252.82C1040.5 252.959 1039.95 253.215 1039.5 253.832C1039.37 254.013 1039.28 254.191 1039.24 254.365C1038.86 254.665 1038.6 255.115 1038.63 255.637C1038.63 255.652 1038.63 255.668 1038.63 255.684C1038.68 256.553 1039.35 257.41 1040.3 257.355C1040.35 257.355 1040.39 257.351 1040.44 257.347C1040.55 257.343 1040.65 257.323 1040.75 257.304C1040.84 257.304 1040.92 257.304 1041 257.304L1041.01 257.304Z" fill="#777777"/>
<path d="M1040.95 257.857C1040.96 257.675 1040.98 257.489 1041.01 257.307C1041.01 257.339 1041.01 257.367 1041.01 257.398C1041.01 257.564 1040.99 257.718 1040.94 257.86L1040.95 257.857Z" fill="#777777"/>
<path d="M1040.3 257.311C1040.46 257.311 1040.61 257.307 1040.76 257.307C1040.66 257.331 1040.56 257.347 1040.44 257.351C1040.39 257.351 1040.35 257.355 1040.3 257.359C1039.36 257.414 1038.68 256.557 1038.63 255.688C1038.63 255.672 1038.63 255.656 1038.63 255.641C1038.6 255.119 1038.86 254.669 1039.24 254.369C1038.95 255.396 1039.98 256.265 1041.02 256.245C1041.02 256.363 1041.02 256.478 1041.02 256.596C1040.78 256.837 1040.54 257.07 1040.31 257.311L1040.3 257.311Z" fill="#777777"/>
<path d="M1037.84 272.491C1037.36 267.309 1037.09 261.969 1037.68 256.758C1037.68 256.972 1037.67 257.181 1037.67 257.394C1037.67 259.381 1040.51 259.535 1040.95 257.857C1040.55 261.85 1040.66 265.911 1040.96 269.904C1041.01 270.587 1041.07 271.294 1041.14 272.021C1040.4 272.191 1039.88 272.843 1039.74 273.522C1039.06 274.522 1039.47 276.189 1041.03 276.137L1041.06 276.137C1041.06 276.137 1041.06 276.137 1041.07 276.137C1041.23 276.133 1041.42 276.137 1041.63 276.153C1041.77 277.034 1041.94 277.907 1042.15 278.772L1042.13 278.772C1041.66 276.994 1038.98 277.654 1038.92 279.408C1038.36 277.077 1038.05 274.691 1037.85 272.499L1037.84 272.491Z" fill="#777777"/>
<path d="M1087.61 266.708C1088.25 266.657 1088.9 266.602 1089.54 266.543C1089.41 267.728 1089.19 268.857 1088.87 269.936C1088.45 269.975 1088.03 270.011 1087.61 270.042C1086.34 270.149 1085.83 269.015 1086.06 268.04C1086.23 267.372 1086.74 266.776 1087.61 266.705L1087.61 266.708Z" fill="#777777"/>
<path d="M1084.15 272.341C1085.08 270.975 1085.63 269.533 1085.94 268.016L1086.06 268.044C1085.82 269.019 1086.34 270.153 1087.61 270.046C1088.03 270.015 1088.45 269.975 1088.87 269.94C1088.17 272.337 1086.96 274.478 1085.08 276.39C1079.79 281.738 1072.24 284.875 1064.95 286.297C1064.47 286.391 1063.99 286.486 1063.51 286.585C1063.72 286.218 1063.9 285.85 1064.07 285.487C1064.46 284.622 1064.79 283.733 1065.07 282.821C1066.54 282.516 1068 282.169 1069.45 281.695C1072.24 280.782 1074.9 279.589 1077.43 278.096C1079.92 276.623 1082.48 274.77 1084.15 272.345L1084.15 272.341Z" fill="#777777"/>
<path d="M1041.34 271.986C1043.27 271.788 1048.55 270.41 1049.26 273.42C1050.24 277.559 1044.24 276.315 1041.62 276.153C1041.61 276.113 1041.61 276.074 1041.6 276.034C1042.06 275.88 1042.38 275.549 1042.56 275.154C1043.75 274.96 1044.96 274.739 1046.14 274.905C1046.3 274.932 1046.46 274.972 1046.61 275.023C1047.3 273.759 1047.31 273.119 1046.63 273.107C1046.09 273.139 1045.55 273.104 1045.01 273.084C1044.35 273.064 1043.72 272.981 1043.08 272.91C1042.91 272.503 1042.56 272.179 1041.97 272.077C1041.91 272.065 1041.84 272.053 1041.78 272.045C1041.75 272.294 1041.72 272.547 1041.68 272.799C1041.6 272.799 1041.53 272.795 1041.45 272.795C1041.37 272.788 1041.28 272.784 1041.2 272.792C1041.18 272.535 1041.15 272.278 1041.13 272.025C1041.2 272.009 1041.27 271.998 1041.34 271.99L1041.34 271.986Z" fill="#777777"/>
<path d="M1041.78 272.041C1041.84 272.053 1041.91 272.065 1041.97 272.073C1042.56 272.175 1042.91 272.499 1043.08 272.906C1042.62 272.855 1042.16 272.807 1041.68 272.795C1041.71 272.547 1041.75 272.294 1041.78 272.041L1041.78 272.041Z" fill="#777777"/>
<path d="M1041.13 272.021C1041.15 272.274 1041.18 272.531 1041.2 272.788C1041.18 272.788 1041.15 272.788 1041.13 272.788C1041.09 272.788 1041.07 272.792 1041.03 272.795C1040.44 272.839 1040 273.127 1039.74 273.518C1039.88 272.839 1040.4 272.187 1041.14 272.017L1041.13 272.021Z" fill="#777777"/>
<path d="M1041.44 272.792C1041.36 272.792 1041.28 272.792 1041.2 272.792L1041.2 272.784C1041.28 272.78 1041.37 272.784 1041.44 272.788L1041.44 272.792Z" fill="#777777"/>
<path d="M1041.2 272.796C1041.28 272.796 1041.36 272.796 1041.44 272.796C1041.53 272.803 1041.6 272.819 1041.67 272.839C1041.59 273.475 1041.5 274.107 1041.42 274.743C1041.33 274.087 1041.26 273.439 1041.2 272.8L1041.2 272.796Z" fill="#777777"/>
<path d="M1041.45 272.791C1041.53 272.791 1041.6 272.791 1041.68 272.795C1041.68 272.811 1041.68 272.819 1041.68 272.835C1041.61 272.811 1041.53 272.799 1041.45 272.791Z" fill="#777777"/>
<path d="M1041.06 272.796L1041.06 275.288C1041.01 275.28 1040.95 275.268 1040.9 275.26C1039.89 275.083 1039.57 274.285 1039.73 273.518C1040 273.127 1040.43 272.839 1041.03 272.796C1041.06 272.796 1041.09 272.792 1041.12 272.788C1041.15 272.788 1041.18 272.788 1041.2 272.788L1041.2 272.796C1041.15 272.796 1041.11 272.796 1041.05 272.796L1041.06 272.796Z" fill="#777777"/>
<path d="M1041.68 272.835C1041.68 272.835 1041.68 272.811 1041.68 272.796C1042.16 272.811 1042.62 272.855 1043.08 272.906C1043.31 273.483 1043.14 274.229 1042.69 274.735C1042.86 273.933 1042.52 273.048 1041.68 272.831L1041.68 272.835Z" fill="#777777"/>
<path d="M1041.42 274.739C1041.5 274.103 1041.59 273.471 1041.68 272.835C1042.52 273.048 1042.86 273.937 1042.69 274.739C1042.48 274.976 1042.22 275.158 1041.9 275.256C1041.76 275.272 1041.63 275.292 1041.5 275.304C1041.47 275.118 1041.45 274.928 1041.42 274.739Z" fill="#777777"/>
<path d="M1041.2 272.796C1041.26 273.435 1041.33 274.087 1041.42 274.739C1041.39 274.932 1041.37 275.126 1041.34 275.32C1041.26 275.32 1041.18 275.308 1041.09 275.296C1041.08 275.296 1041.07 275.296 1041.06 275.292L1041.06 272.799C1041.11 272.799 1041.16 272.799 1041.2 272.799L1041.2 272.796Z" fill="#777777"/>
<path d="M1043.08 272.906C1043.72 272.977 1044.35 273.06 1045.01 273.08C1045.55 273.096 1046.09 273.135 1046.64 273.104C1047.32 273.115 1047.31 273.755 1046.62 275.019C1046.46 274.968 1046.3 274.928 1046.14 274.901C1044.96 274.735 1043.75 274.96 1042.56 275.15C1042.63 275.019 1042.67 274.877 1042.7 274.735C1043.15 274.225 1043.31 273.483 1043.08 272.906L1043.08 272.906Z" fill="#777777"/>
<path d="M1041.34 275.32C1041.37 275.126 1041.39 274.932 1041.42 274.739C1041.44 274.928 1041.46 275.118 1041.49 275.304C1041.45 275.312 1041.4 275.32 1041.35 275.32C1041.35 275.32 1041.34 275.32 1041.34 275.32Z" fill="#777777"/>
<path d="M1042.69 274.739C1042.67 274.881 1042.62 275.023 1042.56 275.154C1042.34 275.189 1042.11 275.225 1041.9 275.256C1042.22 275.158 1042.48 274.976 1042.69 274.739Z" fill="#777777"/>
<path d="M1041.9 275.256C1042.12 275.225 1042.34 275.189 1042.56 275.154C1042.38 275.545 1042.06 275.876 1041.6 276.034C1041.56 275.797 1041.53 275.56 1041.5 275.323C1041.63 275.32 1041.76 275.296 1041.89 275.26L1041.9 275.256Z" fill="#777777"/>
<path d="M1041.5 275.304C1041.63 275.292 1041.76 275.272 1041.89 275.256C1041.76 275.292 1041.63 275.316 1041.5 275.32C1041.5 275.316 1041.5 275.308 1041.5 275.304Z" fill="#777777"/>
<path d="M1041.5 275.304C1041.5 275.304 1041.5 275.316 1041.5 275.32C1041.45 275.323 1041.41 275.323 1041.35 275.32C1041.4 275.32 1041.44 275.312 1041.49 275.304L1041.5 275.304Z" fill="#777777"/>
<path d="M1041.06 276.133L1041.06 275.288C1041.06 275.288 1041.08 275.288 1041.09 275.292C1041.18 275.308 1041.26 275.316 1041.34 275.316C1041.34 275.316 1041.35 275.316 1041.36 275.316C1041.41 275.319 1041.46 275.319 1041.5 275.316C1041.53 275.553 1041.57 275.79 1041.61 276.027C1041.46 276.078 1041.31 276.109 1041.14 276.121C1041.11 276.121 1041.08 276.121 1041.07 276.129C1041.06 276.129 1041.06 276.129 1041.06 276.129L1041.06 276.133Z" fill="#777777"/>
<path d="M1041.13 276.125C1041.3 276.113 1041.46 276.082 1041.6 276.031C1041.61 276.07 1041.61 276.11 1041.62 276.149C1041.41 276.133 1041.22 276.129 1041.06 276.133C1041.08 276.129 1041.11 276.129 1041.13 276.125Z" fill="#777777"/>
<path d="M1041.03 276.133C1039.47 276.185 1039.05 274.518 1039.73 273.518C1039.56 274.285 1039.88 275.083 1040.9 275.26C1040.95 275.268 1041 275.28 1041.05 275.288L1041.05 276.133L1041.03 276.133Z" fill="#777777"/>
<path d="M1038.91 279.404C1038.98 277.65 1041.65 276.99 1042.12 278.772C1042.13 278.823 1042.14 278.871 1042.15 278.926C1042.64 281.62 1043.26 284.464 1044.55 286.921C1044.05 287.28 1043.85 287.94 1043.94 288.552C1043.78 288.592 1043.65 288.651 1043.54 288.73C1041.13 286.261 1039.73 282.888 1038.91 279.404L1038.91 279.404Z" fill="#777777"/>
<path d="M1061.26 283.563C1062.53 283.31 1063.81 283.077 1065.07 282.817C1064.79 283.725 1064.47 284.618 1064.07 285.483C1063.9 285.846 1063.72 286.214 1063.52 286.581C1061.83 286.925 1060.15 287.292 1058.48 287.683C1059.69 286.573 1060.62 285.143 1061.26 283.563L1061.26 283.563Z" fill="#777777"/>
<path d="M1047.56 286.597C1048.72 286.51 1049.88 286.328 1051.03 286.091C1050.88 286.376 1050.72 286.652 1050.54 286.925C1049.68 288.189 1048.64 289.22 1047.39 289.946C1047.24 289.958 1047.09 289.966 1046.93 289.97C1046.77 289.863 1046.61 289.737 1046.46 289.599C1047.22 289.085 1047.61 288.058 1046.85 287.264C1047.11 287.063 1047.34 286.838 1047.56 286.597L1047.56 286.597Z" fill="#777777"/>
<path d="M1044.55 286.921C1044.69 287.181 1044.83 287.442 1044.99 287.695C1045.08 287.849 1045.19 288.011 1045.29 288.173C1044.91 288.327 1044.49 288.449 1044.03 288.536C1044 288.54 1043.97 288.548 1043.94 288.556C1043.85 287.94 1044.05 287.28 1044.55 286.925L1044.55 286.921Z" fill="#777777"/>
<path d="M1038.94 279.815C1038.91 279.672 1038.9 279.534 1038.91 279.404C1039.74 282.888 1041.13 286.265 1043.54 288.73C1042.62 289.385 1043.31 291.21 1044.69 290.946C1045.57 290.776 1046.38 290.487 1047.13 290.092C1047.37 290.239 1047.62 290.349 1047.9 290.424C1050.21 291.041 1052.59 290.306 1054.83 289.697C1056.24 289.314 1057.45 288.611 1058.47 287.679C1060.15 287.288 1061.83 286.921 1063.51 286.577C1062.09 289.16 1059.8 291.653 1057.01 292.545C1053.67 293.62 1049.44 294.84 1046.07 293.276C1041.31 291.064 1039.78 284.484 1038.93 279.811L1038.94 279.815Z" fill="#777777"/>
<path d="M1046.85 287.264C1047.61 288.058 1047.23 289.085 1046.47 289.599C1046.01 289.188 1045.62 288.678 1045.29 288.173C1045.88 287.94 1046.4 287.632 1046.85 287.264Z" fill="#777777"/>
<path d="M1044.03 288.532C1044.49 288.445 1044.91 288.323 1045.29 288.169C1045.62 288.674 1046.01 289.184 1046.47 289.595C1045.93 289.962 1045.2 290.065 1044.55 289.638C1044.55 289.638 1044.55 289.634 1044.54 289.63C1044.21 289.362 1044 288.967 1043.94 288.548C1043.97 288.54 1044 288.532 1044.03 288.528L1044.03 288.532Z" fill="#777777"/>
<path d="M1043.54 288.73C1043.65 288.651 1043.78 288.592 1043.94 288.552C1044 288.971 1044.21 289.366 1044.54 289.634C1044.48 289.591 1044.42 289.543 1044.35 289.492C1044.07 289.251 1043.8 288.998 1043.54 288.73Z" fill="#777777"/>
<path d="M1044.55 289.642C1045.19 290.069 1045.93 289.966 1046.47 289.599C1046.61 289.737 1046.77 289.859 1046.93 289.97C1046.47 289.994 1046 289.998 1045.53 289.986C1045.13 289.97 1044.8 289.844 1044.55 289.646L1044.55 289.642Z" fill="#777777"/>
<path d="M1046.93 289.97C1047.08 289.966 1047.24 289.954 1047.39 289.946C1047.31 289.998 1047.22 290.045 1047.13 290.096C1047.06 290.061 1046.99 290.017 1046.93 289.97Z" fill="#777777"/>
<path d="M1044.55 289.642C1044.8 289.84 1045.13 289.966 1045.53 289.982C1046 289.998 1046.46 289.994 1046.93 289.966C1046.99 290.01 1047.06 290.057 1047.13 290.092C1046.39 290.487 1045.58 290.776 1044.7 290.946C1043.31 291.21 1042.62 289.385 1043.55 288.73C1043.81 288.998 1044.08 289.251 1044.36 289.492C1044.42 289.543 1044.48 289.591 1044.55 289.634C1044.55 289.634 1044.55 289.638 1044.55 289.642L1044.55 289.642Z" fill="#777777"/>
<path d="M697.044 179.623C711.928 177.055 727.333 180.389 739.428 189.604C751.4 198.725 760.007 212.005 763.325 226.723C766.489 240.769 765.213 256.083 762.662 270.161C760.311 283.148 755.864 295.725 748.86 306.959C740.514 320.334 729.383 331.737 717.201 341.66C712.852 345.203 708.397 348.663 703.826 351.977C702.574 351.491 701.33 350.978 700.098 350.445C712.888 341.466 725.137 331.516 735.332 319.67C744.555 308.95 751.914 296.705 756.089 283.144C760.169 269.896 761.963 255.613 761.769 241.756C761.54 225.439 755.33 209.098 743.579 197.572C732.097 186.31 716.036 180.037 699.896 182.522C666.064 187.728 641.622 220.063 634.796 251.916C631.494 267.329 631.53 283.607 635.815 298.834C640.378 315.064 649.372 328.866 661.585 340.408C665.614 344.211 669.884 347.711 674.359 350.891C673.245 351.503 672.12 352.1 670.986 352.688C650.501 337.666 634.848 316.253 630.582 290.717C625.573 260.72 634.014 228.397 654.372 205.551C665.452 193.116 680.344 182.502 697.04 179.623L697.044 179.623Z" fill="#777777"/>
<path d="M701.326 192.038C714.365 190.517 727.483 195.221 736.71 204.563C747.241 215.216 752.368 229.875 752.723 244.699C753.103 260.649 749.966 276.524 742.615 290.752C735.114 305.264 724.153 317.687 711.857 328.336C704.889 334.372 697.57 340.163 689.879 345.381C688.781 344.764 687.691 344.125 686.62 343.469C693.134 339.159 699.39 334.439 705.406 329.442C718.319 318.726 730.359 306.422 738.413 291.562C752.585 265.413 757.013 222.753 729.774 202.951C718.114 194.479 702.997 192.634 689.768 198.662C673.64 206.013 660.491 221.667 652.808 237.356C644.884 253.531 642.052 272.124 646.295 289.765C650.197 305.979 658.931 320.816 671.282 332.034C676.003 336.319 681.149 340.139 686.616 343.473C685.589 344.156 684.554 344.824 683.511 345.479C682.915 345.1 682.323 344.717 681.734 344.326C655.107 326.705 637.383 295.828 641.559 263.304C643.747 246.271 651.039 230.341 662.043 217.183C672.151 205.1 685.095 193.93 701.326 192.042L701.326 192.038Z" fill="#777777"/>
<path d="M967.118 243.435C967.015 242.23 968.749 241.03 970.056 242.049C970.076 242.064 970.096 242.08 970.116 242.096C970.886 243.032 970.471 244.877 968.879 244.897C968.749 244.897 968.619 244.901 968.488 244.908C968.038 244.415 967.592 243.913 967.122 243.435L967.118 243.435Z" fill="#777777"/>
<path d="M968.876 241.563C969.432 241.555 969.847 241.772 970.112 242.1C970.092 242.084 970.072 242.068 970.053 242.053C968.749 241.033 967.011 242.234 967.114 243.439C966.739 243.06 966.348 242.696 965.933 242.365C965.712 242.191 965.439 242.064 965.135 241.974C966.371 241.737 967.615 241.582 968.872 241.563L968.876 241.563Z" fill="#777777"/>
<path d="M970.116 242.1C969.847 241.772 969.432 241.555 968.879 241.563C967.623 241.582 966.383 241.737 965.143 241.974C964.072 241.669 962.607 241.808 961.702 241.847C960.268 241.906 958.554 241.954 957.247 242.617C956.295 243.099 955.793 243.747 955.56 244.588C954.395 244.912 953.229 245.228 952.056 245.532C952.187 243.411 952.937 241.389 954.798 240.176C956.611 238.991 958.866 238.663 960.991 238.545C963.01 238.434 965.862 238.245 967.615 239.485C969.195 240.599 970.404 242.151 971.751 243.526C971.929 243.708 972.051 243.897 972.13 244.095C971.53 243.364 970.862 242.696 970.116 242.104L970.116 242.1Z" fill="#777777"/>
<path d="M968.875 244.9C970.471 244.877 970.886 243.036 970.112 242.1C970.858 242.688 971.526 243.356 972.126 244.091C972.715 245.564 970.72 247.243 969.385 245.884C969.077 245.568 968.777 245.244 968.48 244.912C968.611 244.908 968.741 244.904 968.872 244.9L968.875 244.9Z" fill="#777777"/>
<path d="M957.456 244.182C957.839 244.063 958.278 244.103 958.669 244.407C959.435 245.003 960.071 245.718 960.608 246.52C959.763 246.789 958.918 247.065 958.08 247.342C957.733 246.911 957.342 246.52 956.899 246.176C956.018 245.493 956.603 244.442 957.46 244.182L957.456 244.182Z" fill="#777777"/>
<path d="M952.052 245.533C953.222 245.228 954.391 244.912 955.556 244.588C955.438 245.007 955.382 245.469 955.374 245.987C955.331 248.136 951.993 248.14 952.037 245.987C952.037 245.833 952.045 245.683 952.056 245.529L952.052 245.533Z" fill="#777777"/>
<path d="M949.647 246.137C950.453 245.939 951.259 245.738 952.056 245.528C952.045 245.679 952.041 245.833 952.037 245.987C951.993 248.139 955.331 248.135 955.374 245.987C955.386 245.469 955.438 245.003 955.556 244.588C956.18 244.415 956.836 244.363 957.456 244.181C956.599 244.442 956.018 245.493 956.895 246.176C957.338 246.52 957.729 246.911 958.076 247.341C956.808 247.752 955.548 248.155 954.292 248.483C951.393 249.249 948.47 249.787 945.642 250.829C942.881 251.848 940.266 253.168 937.781 254.748C935.229 256.371 932.666 258.409 931.042 261.009C930.738 261.498 930.481 261.996 930.268 262.498C929.087 262.513 927.906 262.541 926.725 262.589C927.337 260.637 928.321 258.836 929.786 257.161C934.795 251.434 942.355 247.91 949.639 246.137L949.647 246.137Z" fill="#777777"/>
<path d="M969.389 245.88C970.72 247.239 972.715 245.556 972.13 244.087C973.398 245.635 974.366 247.456 975.108 249.392C974.745 249.419 974.378 249.443 974.014 249.463C972.683 249.534 972.174 250.849 972.497 251.809L972.462 251.821C971.593 249.17 970.487 246.718 968.488 244.912C968.429 244.912 968.547 244.908 968.488 244.912C968.784 245.244 969.085 245.568 969.393 245.884L969.389 245.88Z" fill="#777777"/>
<path d="M958.08 247.342C958.921 247.065 959.763 246.789 960.608 246.52C962.346 249.103 963.037 252.556 963.559 255.471C963.969 257.754 964.301 260.076 964.538 262.379C964.767 264.623 964.661 266.859 964.598 269.102C964.408 276.066 964.72 283.405 961.394 289.634C960.458 289.555 959.522 289.508 958.586 289.48C962.33 283.381 961.892 276.07 962.093 269.106C962.22 264.887 961.987 260.811 961.236 256.644C960.695 253.63 960.106 249.838 958.08 247.345L958.08 247.342Z" fill="#777777"/>
<path d="M990.324 248.262C994.282 247.891 1000.26 247.819 1000.69 253.101C1001.11 258.263 994.965 258.816 991.193 258.844C989.127 258.86 987.069 258.745 985.011 258.923C982.467 259.14 979.951 259.417 977.407 259.511C977.376 259.255 977.336 259.002 977.305 258.749C977.194 257.92 977.064 257.062 976.91 256.19C981.196 256.083 985.43 255.459 989.724 255.502C991.477 255.518 998.133 255.976 997.319 253.014C996.944 251.647 995.364 251.465 994.124 251.426C992.188 251.367 990.269 251.619 988.341 251.797C986.117 251.999 983.885 251.872 981.658 252.081C979.817 252.251 977.984 252.48 976.143 252.646C975.855 251.544 975.515 250.45 975.105 249.392C977.767 249.182 980.413 248.771 983.08 248.641C985.513 248.523 987.895 248.491 990.32 248.262L990.324 248.262Z" fill="#777777"/>
<path d="M975.105 249.392C975.515 250.45 975.851 251.544 976.143 252.646C975.432 252.71 974.725 252.765 974.014 252.8C973.201 252.844 972.691 252.39 972.498 251.809C972.174 250.849 972.683 249.534 974.014 249.463C974.378 249.443 974.745 249.419 975.109 249.392L975.105 249.392Z" fill="#777777"/>
<path d="M975.843 256.209C976.199 256.209 976.554 256.205 976.91 256.193C977.064 257.062 977.194 257.924 977.305 258.753C977.336 259.006 977.376 259.259 977.408 259.515C976.886 259.535 976.365 259.547 975.839 259.547C974.895 259.547 974.366 258.911 974.251 258.196C974.101 257.272 974.631 256.217 975.839 256.209L975.843 256.209Z" fill="#777777"/>
<path d="M973.892 258.247C973.576 256.122 973.145 253.906 972.458 251.821L972.494 251.809C972.687 252.394 973.193 252.848 974.011 252.8C974.722 252.761 975.433 252.71 976.14 252.646C976.452 253.831 976.7 255.02 976.906 256.19C976.55 256.201 976.195 256.205 975.839 256.205C974.631 256.209 974.101 257.268 974.251 258.192L973.888 258.244L973.892 258.247Z" fill="#777777"/>
<path d="M973.892 258.248L974.255 258.196C974.374 258.915 974.899 259.551 975.843 259.547C976.365 259.547 976.89 259.531 977.411 259.515C978.063 264.437 978.517 269.462 978.19 274.427C977.562 274.47 976.934 274.518 976.302 274.585C975.306 274.691 974.773 275.481 974.71 276.271L974.65 276.271C975.231 271.338 974.915 266.294 974.311 261.376C974.188 260.373 974.054 259.322 973.892 258.248Z" fill="#777777"/>
<path d="M930.272 262.498C931.311 262.482 932.354 262.482 933.397 262.494C934.562 262.506 935.095 263.493 935 264.39C934.894 264.22 934.775 264.05 934.653 263.88C933.404 262.154 930.505 263.821 931.769 265.563C931.832 265.654 931.896 265.737 931.951 265.828C931.098 265.828 930.248 265.835 929.395 265.851C929.545 264.702 929.814 263.584 930.272 262.498Z" fill="#777777"/>
<path d="M926.729 262.588C927.91 262.541 929.087 262.513 930.272 262.498C929.814 263.584 929.545 264.702 929.395 265.851C928.273 265.871 927.152 265.903 926.03 265.954C926.164 264.785 926.389 263.667 926.729 262.592L926.729 262.588Z" fill="#777777"/>
<path d="M931.769 265.559C930.505 263.813 933.4 262.15 934.653 263.876C934.775 264.046 934.894 264.216 935 264.386C934.917 265.144 934.384 265.839 933.397 265.831C932.915 265.828 932.433 265.828 931.951 265.828C931.892 265.737 931.832 265.654 931.769 265.563L931.769 265.559Z" fill="#777777"/>
<path d="M933.397 265.832C934.384 265.843 934.917 265.148 935 264.386C937.434 268.174 936.624 272.266 935.877 276.481C935.703 275.837 935.186 275.296 934.325 275.292C933.792 275.288 933.258 275.288 932.721 275.288C933.33 271.97 933.969 268.826 931.955 265.828C932.437 265.828 932.919 265.828 933.401 265.832L933.397 265.832Z" fill="#777777"/>
<path d="M926.729 262.589C926.385 263.667 926.16 264.785 926.03 265.95C909.855 266.633 893.589 270.094 878.922 276.813C863.774 283.753 851.32 293.276 840.054 305.513C827.746 318.88 816.698 333.712 802.355 345.049C791.611 353.537 778.754 358.996 765.296 361.402C743.84 365.241 720.914 362.65 700.587 354.284C701.674 353.522 702.752 352.751 703.826 351.973C719.935 358.269 737.56 360.9 754.576 359.466C768.792 358.273 783.056 354.248 795.012 346.289C809.821 336.434 820.999 321.918 832.66 308.74C844.905 294.904 857.999 282.903 874.889 275.019C891.159 267.423 908.808 263.272 926.733 262.589L926.729 262.589Z" fill="#777777"/>
<path d="M992.046 273.57C995.98 273.23 1001.98 273.554 1001.49 278.993C1001.05 283.994 995.017 284.211 991.189 284.246C988.756 284.27 986.374 284.574 983.945 284.673C981.338 284.78 978.731 284.685 976.124 284.78C976.523 283.674 976.854 282.548 977.131 281.414C979.169 281.375 981.199 281.426 983.234 281.359C985.43 281.288 987.598 280.94 989.795 280.921C991.493 280.901 998.102 281.533 998.181 278.732C998.22 277.294 997.319 276.951 995.889 276.836C993.911 276.678 991.924 276.888 989.957 277.133C985.924 277.63 981.871 277.484 977.83 277.784C977.996 276.67 978.107 275.549 978.182 274.423C980.757 274.257 983.325 274.281 985.912 274.194C987.966 274.123 989.992 273.747 992.042 273.57L992.046 273.57Z" fill="#777777"/>
<path d="M976.298 274.581C976.93 274.514 977.558 274.462 978.186 274.423C978.111 275.549 977.996 276.666 977.834 277.784C977.321 277.82 976.811 277.863 976.298 277.922C975.164 278.041 974.639 277.16 974.706 276.271C974.769 275.485 975.302 274.691 976.298 274.585L976.298 274.581Z" fill="#777777"/>
<path d="M932.717 275.284C933.254 275.284 933.788 275.284 934.321 275.288C935.182 275.292 935.699 275.837 935.873 276.477C935.83 276.722 935.786 276.97 935.747 277.215C935.383 279.337 932.168 278.432 932.527 276.327C932.587 275.975 932.654 275.627 932.717 275.28L932.717 275.284Z" fill="#777777"/>
<path d="M926.267 275.438C927.396 275.387 928.522 275.347 929.644 275.323C929.77 275.912 929.936 276.497 930.154 277.077C930.355 277.618 930.592 278.144 930.861 278.653C929.66 278.677 928.455 278.724 927.25 278.792C927.136 278.523 927.033 278.25 926.934 277.97C926.646 277.14 926.429 276.299 926.267 275.442L926.267 275.438Z" fill="#777777"/>
<path d="M974.706 276.267C974.635 277.156 975.164 278.041 976.298 277.918C976.811 277.863 977.321 277.82 977.834 277.78C977.708 278.653 977.554 279.526 977.368 280.391C977.293 280.731 977.214 281.074 977.131 281.41C976.495 281.422 975.855 281.442 975.215 281.481C974.346 281.533 973.825 282.113 973.659 282.773L973.315 282.666C973.971 280.565 974.394 278.424 974.647 276.256L974.706 276.256L974.706 276.267Z" fill="#777777"/>
<path d="M926.267 275.438C926.429 276.295 926.646 277.136 926.934 277.966C927.033 278.246 927.136 278.519 927.25 278.788C921.112 279.111 914.982 279.898 908.95 280.948C900.406 282.437 892.02 284.112 883.947 287.395C869.537 293.241 858.37 302.63 848.116 314.136C838.166 325.303 829.113 337.366 818.147 347.593C808.035 357.021 796.454 364.005 783.455 368.713C753.047 379.73 718.592 378.268 689.508 363.914C688.801 363.566 688.098 363.211 687.394 362.844C688.568 362.148 689.733 361.437 690.886 360.715C710.779 370.467 733.266 374.587 755.666 371.917C771.944 369.977 788.68 364.826 802.482 355.809C817.267 346.143 828.307 332.089 839.647 318.805C850.676 305.885 862.257 293.466 877.994 286.344C892.751 279.668 909.815 276.181 926.275 275.438L926.267 275.438Z" fill="#777777"/>
<path d="M935.747 277.215C935.79 276.971 935.834 276.722 935.873 276.477C936.13 277.441 935.612 278.637 934.321 278.626C933.167 278.614 932.014 278.626 930.857 278.649C930.588 278.144 930.351 277.618 930.15 277.073C929.932 276.493 929.766 275.908 929.64 275.319C930.671 275.296 931.694 275.284 932.713 275.28C932.65 275.628 932.587 275.975 932.524 276.327C932.16 278.432 935.379 279.333 935.743 277.215L935.747 277.215Z" fill="#777777"/>
<path d="M975.215 281.485C975.855 281.45 976.495 281.426 977.131 281.414C976.854 282.548 976.523 283.678 976.124 284.78C975.82 284.791 975.515 284.803 975.215 284.823C973.939 284.894 973.422 283.749 973.659 282.777C973.825 282.113 974.342 281.533 975.215 281.485Z" fill="#777777"/>
<path d="M973.118 283.298C973.189 283.089 973.256 282.88 973.319 282.674L973.663 282.781C973.422 283.753 973.939 284.898 975.219 284.827C975.523 284.811 975.827 284.796 976.128 284.784C975.413 286.794 974.492 288.734 973.323 290.507C973.315 290.523 973.307 290.531 973.299 290.547C974.03 288.856 971.636 287.426 970.499 288.801C970.645 288.544 970.783 288.287 970.91 288.07C971.798 286.549 972.561 284.969 973.122 283.298L973.118 283.298Z" fill="#777777"/>
<path d="M970.491 288.801C971.629 287.43 974.022 288.86 973.292 290.547C972.466 291.803 971.609 293.008 970.053 293.335C968.631 293.636 967.054 293.62 965.601 293.47C967.465 292.703 969.01 291.159 970.084 289.433C970.23 289.235 970.365 289.014 970.491 288.797L970.491 288.801Z" fill="#777777"/>
<path d="M970.309 289.065C970.365 288.967 970.428 288.88 970.491 288.801C970.365 289.018 970.234 289.239 970.084 289.437C970.163 289.314 970.234 289.192 970.305 289.065L970.309 289.065Z" fill="#777777"/>
<path d="M958.586 289.48C959.522 289.512 960.458 289.555 961.394 289.634C960.972 290.428 960.486 291.206 959.933 291.961C959.4 292.688 958.483 292.609 957.95 292.174C957.535 291.83 957.353 291.27 957.768 290.701C958.06 290.302 958.333 289.891 958.586 289.48Z" fill="#777777"/>
<path d="M953.652 292.174C953.068 290.835 954.241 289.611 955.307 289.611C955.797 289.611 956.263 289.871 956.536 290.487C956.86 291.226 957.294 291.826 957.82 292.308C958.049 292.518 958.294 292.703 958.55 292.869C956.982 292.774 955.414 292.692 953.846 292.581C953.775 292.447 953.712 292.312 953.652 292.17L953.652 292.174Z" fill="#777777"/>
<path d="M973.295 290.547C973.268 290.614 973.236 290.681 973.197 290.748C971.139 294.327 967.378 297.412 963.085 297.325C959.403 297.254 955.584 296.029 953.85 292.585C955.418 292.695 956.986 292.778 958.554 292.873C959.83 293.691 961.438 293.995 963.085 293.987C963.973 293.987 964.819 293.798 965.609 293.474C967.062 293.624 968.638 293.64 970.06 293.339C971.617 293.008 972.474 291.803 973.299 290.551L973.295 290.547Z" fill="#777777"/>
<path d="M957.768 290.701C957.349 291.269 957.535 291.834 957.95 292.174L957.823 292.312C957.298 291.83 956.86 291.23 956.54 290.491C956.271 289.875 955.801 289.614 955.311 289.614L955.319 289.381C956.409 289.425 957.5 289.441 958.59 289.48C958.337 289.891 958.064 290.302 957.772 290.701L957.768 290.701Z" fill="#777777"/>
<path d="M953.652 292.174C953.715 292.312 953.779 292.451 953.846 292.585C949.647 292.285 945.48 291.787 941.431 290.385C935.458 288.311 929.711 284.819 927.242 278.791C928.447 278.728 929.652 278.681 930.853 278.653C931.611 280.087 932.622 281.383 933.827 282.477C939.44 287.564 947.814 289.085 955.137 289.377C955.197 289.377 955.256 289.381 955.311 289.381L955.303 289.614C954.237 289.614 953.064 290.839 953.648 292.178L953.652 292.174Z" fill="#777777"/>
<path d="M371.706 338.164C382.604 337.891 393.491 338.705 404.254 340.4C426.588 343.919 447.965 350.891 469.651 357.041C491.067 363.112 513.037 366.959 535.217 368.784C556.566 370.538 578.193 371.103 599.594 369.997C618.451 369.025 637.352 366.351 655.127 359.735C660.57 357.709 665.855 355.339 670.986 352.684C672.017 353.443 673.06 354.181 674.115 354.9C671.041 356.527 667.909 358.04 664.729 359.431C648.056 366.695 630.341 370.724 612.261 372.426C591.508 374.378 570.443 374.188 549.642 373.094C528.13 371.96 506.646 369.428 485.632 364.593C463.69 359.545 442.486 351.784 420.497 346.897C409.306 344.409 397.966 342.45 386.511 341.766C375.056 341.087 363.826 341.829 352.446 343.172C329.52 345.882 306.713 349.544 284.103 354.213C261.351 358.913 20.7601 417.726 -2.39876 419.887C-4.54361 420.088 -4.52386 416.746 -2.39876 416.549C16.2808 414.807 252.95 357.566 271.281 353.537C293.437 348.671 315.766 344.674 338.246 341.628C349.314 340.127 360.516 338.44 371.702 338.164L371.706 338.164Z" fill="#777777"/>
<path d="M683.512 345.475C684.554 344.82 685.589 344.148 686.616 343.469C687.691 344.124 688.777 344.76 689.875 345.381C688.844 346.08 687.801 346.775 686.758 347.454C685.664 346.814 684.582 346.155 683.512 345.479L683.512 345.475Z" fill="#777777"/>
<path d="M674.359 350.891C677.468 349.184 680.518 347.375 683.512 345.475C684.582 346.151 685.66 346.811 686.759 347.45C683.733 349.418 680.652 351.29 677.516 353.052C676.453 352.352 675.402 351.63 674.359 350.891Z" fill="#777777"/>
<path d="M341.43 354.28C355.057 352.502 368.716 350.701 382.49 351.298C404.649 352.262 426.284 357.428 447.515 363.57C468.983 369.776 490.147 376.048 512.326 379.256C534.442 382.459 556.8 383.553 579.133 383.534C598.808 383.518 618.684 382.811 637.98 378.636C654.21 375.124 669.612 369.223 683.899 360.963C685.052 361.611 686.217 362.235 687.39 362.84C680.849 366.73 674.083 370.206 667.068 373.11C649.696 380.303 631.233 384.095 612.538 385.659C591.678 387.405 570.534 387.266 549.642 386.168C528.13 385.035 506.646 382.503 485.632 377.668C463.69 372.62 442.486 364.858 420.497 359.972C409.306 357.483 397.966 355.524 386.511 354.841C375.056 354.161 363.826 354.904 352.446 356.247C329.52 358.957 306.713 362.618 284.103 367.287C261.351 371.988 20.7601 428.249 -2.39876 430.41C-4.54361 430.611 -4.52386 427.269 -2.39876 427.072C26.3849 424.386 272.131 365.885 300.5 360.707C314.088 358.226 327.731 356.065 341.426 354.28L341.43 354.28Z" fill="#777777"/>
<path d="M696.87 352.676C697.949 351.938 699.023 351.191 700.094 350.441C701.326 350.974 702.57 351.487 703.823 351.973C702.748 352.751 701.67 353.522 700.583 354.284C699.335 353.77 698.095 353.233 696.87 352.676Z" fill="#777777"/>
<path d="M670.99 352.688C672.124 352.1 673.246 351.503 674.363 350.891C675.402 351.63 676.457 352.352 677.519 353.052C676.394 353.688 675.26 354.304 674.119 354.904C673.064 354.185 672.021 353.443 670.99 352.688Z" fill="#777777"/>
<path d="M696.87 352.676C698.099 353.237 699.335 353.77 700.583 354.284C697.408 356.512 694.173 358.664 690.882 360.714C689.697 360.138 688.52 359.533 687.355 358.913C689.081 357.855 690.787 356.764 692.478 355.639C693.944 354.663 695.409 353.676 696.867 352.676L696.87 352.676Z" fill="#777777"/>
<path d="M687.355 358.913C688.52 359.533 689.697 360.134 690.882 360.715C689.729 361.437 688.564 362.148 687.39 362.844C686.217 362.239 685.052 361.615 683.899 360.967C685.06 360.3 686.209 359.616 687.355 358.913Z" fill="#777777"/>
<path d="M968.556 335.853C970.337 332.192 972.119 328.53 973.9 324.869C974.836 322.941 971.961 321.246 971.017 323.182C969.235 326.843 967.454 330.505 965.672 334.167C964.736 336.094 967.612 337.789 968.556 335.853Z" fill="#777777"/>
<path d="M1009.56 344.583C1009.51 338.559 1009.45 332.535 1009.4 326.512C1009.38 324.359 1006.04 324.359 1006.06 326.512C1006.12 332.535 1006.17 338.559 1006.22 344.583C1006.24 346.736 1009.58 346.736 1009.56 344.583Z" fill="#777777"/>
<path d="M1052.47 329.494C1049.69 325.572 1046.91 321.649 1044.14 317.727C1042.9 315.985 1040 317.652 1041.25 319.414C1044.03 323.336 1046.81 327.258 1049.59 331.181C1050.82 332.923 1053.72 331.256 1052.47 329.494Z" fill="#777777"/>
<path d="M963.697 198.962C965.913 203.2 968.129 207.439 970.341 211.677C971.34 213.585 974.22 211.898 973.225 209.99C971.009 205.752 968.793 201.514 966.581 197.275C965.581 195.368 962.702 197.054 963.697 198.962Z" fill="#777777"/>
<path d="M1004.72 188.834C1004.84 194.858 1004.95 200.882 1005.07 206.905C1005.12 209.054 1008.45 209.058 1008.41 206.905C1008.29 200.882 1008.17 194.858 1008.06 188.834C1008.01 186.685 1004.67 186.681 1004.72 188.834Z" fill="#777777"/>
<path d="M1047.93 201.818C1045.46 205.523 1042.99 209.228 1040.52 212.933C1039.32 214.73 1042.22 216.401 1043.4 214.62C1045.87 210.915 1048.34 207.21 1050.81 203.505C1052.01 201.707 1049.12 200.036 1047.93 201.818Z" fill="#777777"/>
</g>
<defs>
<clipPath id="clip0_2189_71183">
<rect width="1440" height="430" fill="white"/>
</clipPath>
</defs>
</svg>
